# xmcd CD database file
#
# Track frame offsets:
#	150
#	17955
#	41522
#	67015
#	89380
#	108790
#	130097
#	152927
#	178565
#	197047
#	219720
#	243112
#	265415
#	289072
#	312877
#
# Disc length: 4433 seconds
#
# Revision: 4
# Processed by: cddbd v1.5.2PL0 Copyright (c) Steve Scherf et al.
# Submitted via: CDex 1.70beta2
#
DISCID=d6114f0f
DTITLE=ET-KING - シングル コレクション！（Disc.1）
DYEAR=2010
DGENRE=JPop
TTITLE0=ドーナッツ
TTITLE1=夏大盛り
TTITLE2=Beautiful Life
TTITLE3=愛しい人へ
TTITLE4=ギフト
TTITLE5=晴レルヤ
TTITLE6=さよならまたな
TTITLE7=ふたりの歌
TTITLE8=今
TTITLE9=君想う花
TTITLE10=新恋愛
TTITLE11=サクラサク
TTITLE12=愛しい人へ 2010
TTITLE13=最後の言葉 feat.h
TTITLE14=一番音頭(Bonus Track)
EXTD=YEAR: 2010
EXTT0=
EXTT1=
EXTT2=
EXTT3=
EXTT4=
EXTT5=
EXTT6=
EXTT7=
EXTT8=
EXTT9=
EXTT10=
EXTT11=
EXTT12=
EXTT13=
EXTT14=
PLAYORDER=
